<svg width="12" height="12" viewBox="0 0 12 12" fill="none" xmlns="http://www.w3.org/2000/svg">
<path d="M6.17167 10.1642H6.10108V10.2348V10.9407V11.0113H6.17167H11.3642H11.4348V10.9407V10.2348V10.1642H11.3642H6.17167ZM6.17167 8.39958H6.10108V8.47017V9.17603V9.24662H6.17167H11.3642H11.4348V9.17603V8.47017V8.39958H11.3642H6.17167ZM4.195 10.968L4.21317 11.0113H4.26007H5.05898H5.16896L5.12315 10.9113L3.50604 7.38197L3.48717 7.34078H3.44187H2.59623H2.55093L2.53206 7.38197L0.914955 10.9113L0.869141 11.0113H0.979126H1.77804H1.82493L1.84311 10.968L2.12165 10.3054H3.91645L4.195 10.968ZM0.979126 5.57612H0.90854V5.64671V6.35257V6.42316H0.979126H11.3642H11.4348V6.35257V5.64671V5.57612H11.3642H0.979126ZM6.17167 2.75267H6.10108V2.82325V3.52912V3.5997H6.17167H11.3642H11.4348V3.52912V2.82325V2.75267H11.3642H6.17167ZM6.17167 0.988007H6.10108V1.05859V1.76446V1.83504H6.17167H11.3642H11.4348V1.76446V1.05859V0.988007H11.3642H6.17167ZM4.195 4.61527L4.21317 4.6585H4.26007H5.05898H5.16896L5.12315 4.55851L3.50604 1.02919L3.48717 0.988007H3.44187H2.59623H2.55093L2.53206 1.02919L0.914955 4.55851L0.869141 4.6585H0.979126H1.77804H1.82493L1.84311 4.61527L2.12165 3.95264H3.91645L4.195 4.61527ZM3.5604 9.45838H2.47771L3.01905 8.17057L3.5604 9.45838ZM3.5604 3.1056H2.47771L3.01905 1.81779L3.5604 3.1056Z" fill="#5F75A9" stroke="#5F75A9" stroke-width="0.141173"/>
</svg>
