<svg width="12" height="12" viewBox="0 0 12 12" fill="none" xmlns="http://www.w3.org/2000/svg">
<path d="M6.17179 10.1642H6.1012V10.2348V10.9407V11.0113H6.17179H11.3643H11.4349V10.9407V10.2348V10.1642H11.3643H6.17179ZM6.17179 8.39958H6.1012V8.47017V9.17603V9.24662H6.17179H11.3643H11.4349V9.17603V8.47017V8.39958H11.3643H6.17179ZM4.19512 10.968L4.21329 11.0113H4.26019H5.0591H5.16909L5.12327 10.9113L3.50617 7.38197L3.4873 7.34078H3.442H2.59635H2.55105L2.53218 7.38197L0.915077 10.9113L0.869263 11.0113H0.979248H1.77816H1.82505L1.84323 10.968L2.12177 10.3054H3.91658L4.19512 10.968ZM0.979248 5.57612H0.908662V5.64671V6.35257V6.42316H0.979248H11.3643H11.4349V6.35257V5.64671V5.57612H11.3643H0.979248ZM6.17179 2.75267H6.1012V2.82325V3.52912V3.5997H6.17179H11.3643H11.4349V3.52912V2.82325V2.75267H11.3643H6.17179ZM6.17179 0.988007H6.1012V1.05859V1.76446V1.83504H6.17179H11.3643H11.4349V1.76446V1.05859V0.988007H11.3643H6.17179ZM4.19512 4.61527L4.21329 4.6585H4.26019H5.0591H5.16909L5.12327 4.55851L3.50617 1.02919L3.4873 0.988007H3.442H2.59635H2.55105L2.53218 1.02919L0.915077 4.55851L0.869263 4.6585H0.979248H1.77816H1.82505L1.84323 4.61527L2.12177 3.95264H3.91658L4.19512 4.61527ZM3.56052 9.45838H2.47783L3.01917 8.17057L3.56052 9.45838ZM3.56052 3.1056H2.47783L3.01917 1.81779L3.56052 3.1056Z" fill="#7E7E7E" stroke="#7E7E7E" stroke-width="0.141173"/>
</svg>
