<svg width="144" height="23" viewBox="0 0 144 23" fill="none" xmlns="http://www.w3.org/2000/svg">
<path d="M44.3653 22.8519C44.3653 17.2475 44.3653 11.6432 44.3653 6.0532C44.351 6.0532 44.3367 6.03887 44.308 6.03887C44.265 6.12487 44.222 6.21087 44.179 6.28254C41.7853 11.7149 39.3917 17.1472 36.998 22.5795C36.8977 22.7945 36.7973 22.8805 36.568 22.8662C36.224 22.8375 35.88 22.8519 35.536 22.8662C35.3067 22.8805 35.2063 22.7945 35.1203 22.5939C33.988 19.9852 32.8413 17.3765 31.6947 14.7679C30.462 11.9585 29.2293 9.1492 27.9967 6.32554C27.9537 6.23954 27.9107 6.15354 27.8103 6.06754C27.8103 6.16787 27.8103 6.2682 27.8103 6.3542C27.8103 11.6862 27.8103 17.0325 27.8103 22.3645C27.8103 22.4505 27.8103 22.5222 27.8103 22.6082C27.8247 22.7802 27.7673 22.8519 27.581 22.8519C27.0363 22.8375 26.506 22.8375 25.9613 22.8519C25.8037 22.8519 25.7463 22.7945 25.7607 22.6512C25.7607 22.5939 25.7607 22.5222 25.7607 22.4649C25.7607 15.1262 25.7607 7.7732 25.7607 0.434537C25.7607 0.31987 25.7607 0.205203 25.7607 0.0618694C25.8753 0.0618694 25.9613 0.0475362 26.0473 0.0475362C27.2227 0.0475362 28.4123 0.0475362 29.5877 0.0475362C29.7883 0.0475362 29.8887 0.119203 29.9603 0.305537C32.354 5.7092 34.7333 11.1129 37.127 16.5022C37.17 16.5882 37.213 16.6742 37.2703 16.8175C37.3277 16.7172 37.3707 16.6455 37.3993 16.5595C39.7787 11.1702 42.158 5.76654 44.5373 0.36287C44.652 0.10487 44.781 0.0332031 45.0533 0.0332031C46.1713 0.0475365 47.2893 0.0475362 48.4073 0.0475362C48.5077 0.0475362 48.6223 0.0475362 48.7513 0.0475362C48.7657 0.162203 48.7657 0.262536 48.7657 0.348536C48.7657 7.74454 48.7657 15.1405 48.7657 22.5365C48.7657 22.7802 48.694 22.8519 48.4503 22.8519C47.1747 22.8375 45.899 22.8519 44.609 22.8519C44.566 22.8662 44.48 22.8519 44.3653 22.8519Z" fill="black"/>
<path d="M128.445 22.8519C126.954 22.8519 125.506 22.8519 124.044 22.8519C124.044 15.2553 124.044 7.67293 124.044 0.0762634C125.506 0.0762634 126.954 0.0762634 128.445 0.0762634C128.445 3.32993 128.445 6.5836 128.445 9.8516C131.842 9.8516 135.21 9.8516 138.621 9.8516C138.621 6.59793 138.621 3.34426 138.621 0.0762634C140.098 0.0762634 141.56 0.0762634 143.022 0.0762634C143.022 7.67293 143.022 15.2553 143.022 22.8376C141.56 22.8376 140.098 22.8376 138.621 22.8376C138.621 19.1969 138.621 15.5706 138.621 11.9299C135.224 11.9299 131.856 11.9299 128.459 11.9299C128.445 15.5706 128.445 19.1969 128.445 22.8519Z" fill="black"/>
<path d="M92.984 14.8969C92.984 9.96624 92.984 5.03558 92.984 0.0762442C93.7294 0.0762442 94.446 0.0762442 95.1914 0.0762442C95.1914 7.65858 95.1914 15.2409 95.1914 22.8519C94.6897 22.8519 94.188 22.8662 93.7007 22.8376C93.629 22.8376 93.543 22.7086 93.4714 22.6226C90.6764 18.9676 87.8957 15.2982 85.1007 11.6432C83.3234 9.30691 81.5317 6.97058 79.7544 4.61991C79.697 4.54824 79.6397 4.49091 79.5394 4.36191C79.5394 10.3819 79.5394 16.3302 79.5394 22.2929C78.8514 22.2929 78.1777 22.2929 77.504 22.2929C77.504 14.8826 77.504 7.47224 77.504 0.0475769C77.6187 0.0475769 77.7047 0.0475769 77.805 0.0475769C79.0234 0.0475769 80.2417 0.0475769 81.4457 0.0475769C81.675 0.0475769 81.804 0.119244 81.933 0.291244C85.5307 5.09291 89.1284 9.89458 92.726 14.6819C92.7834 14.7536 92.8407 14.8396 92.9124 14.9112C92.941 14.9112 92.9697 14.9112 92.984 14.8969Z" fill="black"/>
<path d="M61.7804 6.35424C61.4937 7.05657 61.2214 7.7159 60.9634 8.37524C60.4761 9.59357 59.9744 10.7976 59.5014 12.0159C58.1397 15.5419 56.7924 19.0679 55.4451 22.5939C55.3734 22.7946 55.2874 22.8662 55.0581 22.8662C54.3987 22.8519 53.7394 22.8662 53.0801 22.8662C52.9941 22.8662 52.9081 22.8519 52.7791 22.8519C52.9654 22.4076 53.1231 21.9919 53.2951 21.5906C56.2191 14.5099 59.1574 7.44357 62.0671 0.362905C62.1674 0.119238 62.2821 0.0332372 62.5401 0.0619039C62.8124 0.0762372 63.0991 0.0762372 63.3714 0.0619039C63.6007 0.0475706 63.7154 0.119237 63.8014 0.348571C65.1201 3.4589 66.4531 6.56924 67.7861 9.6939C69.6207 13.9796 71.4554 18.2796 73.2901 22.5652C73.3331 22.6512 73.3617 22.7516 73.4047 22.8519C73.3044 22.8519 73.2327 22.8662 73.1467 22.8662C71.7134 22.8662 70.2801 22.8662 68.8467 22.8662C68.6604 22.8662 68.5601 22.8089 68.4884 22.6226C67.6284 20.5012 66.7397 18.3942 65.8797 16.2729C65.3351 14.9542 64.8334 13.6212 64.2887 12.3026C63.5004 10.3819 62.6834 8.47557 61.8807 6.56924C61.8664 6.5119 61.8377 6.45457 61.7804 6.35424Z" fill="black"/>
<path d="M119.845 22.8662C119.63 22.8662 119.443 22.8662 119.271 22.8662C117.938 22.8662 116.605 22.8662 115.272 22.8662C115.086 22.8662 115 22.8089 114.943 22.6369C114.068 20.5012 113.18 18.3799 112.305 16.2442C111.775 14.9399 111.273 13.6069 110.729 12.3025C109.926 10.3819 109.109 8.4612 108.306 6.54054C108.292 6.49754 108.263 6.4402 108.22 6.3542C108.163 6.4832 108.12 6.5692 108.091 6.66954C107.375 8.44687 106.629 10.2242 105.941 12.0159C104.58 15.5419 103.232 19.0679 101.885 22.5939C101.799 22.8089 101.713 22.8805 101.484 22.8805C100.753 22.8662 100.007 22.8805 99.2477 22.8805C99.2763 22.7945 99.2907 22.7229 99.3193 22.6655C102.401 15.2122 105.497 7.75887 108.579 0.291205C108.65 0.119205 108.736 0.0618722 108.923 0.0762055C109.238 0.0905388 109.553 0.0905388 109.869 0.0762055C110.112 0.0618722 110.213 0.162205 110.299 0.377205C112.004 4.3762 113.71 8.3752 115.416 12.3599C116.878 15.7712 118.325 19.1825 119.787 22.5939C119.773 22.6512 119.802 22.7372 119.845 22.8662Z" fill="black"/>
<path d="M21.604 22.9236C21.088 22.9236 20.615 22.9236 20.1277 22.9236C19.0957 22.9236 18.078 22.9236 17.046 22.9236C16.8597 22.9236 16.7593 22.8806 16.6877 22.6943C15.8133 20.5729 14.939 18.4516 14.0647 16.3159C13.5343 15.0116 13.0183 13.6786 12.488 12.3743C11.6853 10.4536 10.8683 8.53295 10.0657 6.61228C10.037 6.55495 10.0083 6.49761 9.96532 6.41161C9.90799 6.54061 9.86499 6.62661 9.82199 6.72695C9.10532 8.50428 8.35999 10.2816 7.67199 12.0733C6.31032 15.5993 4.96299 19.1253 3.61566 22.6513C3.52966 22.8663 3.42932 22.9379 3.21432 22.9236C2.48332 22.9093 1.73799 22.9236 0.963989 22.9236C1.02132 22.7803 1.04999 22.6799 1.09299 22.5796C4.14599 15.1693 7.21332 7.77328 10.2663 0.37728C10.3523 0.190946 10.4383 0.0906127 10.6533 0.119279C10.9687 0.147946 11.284 0.133613 11.5993 0.119279C11.8 0.104946 11.9003 0.176613 11.972 0.362947C13.047 2.89995 14.1363 5.43695 15.2113 7.97395C17.304 12.8616 19.3823 17.7493 21.475 22.6369C21.518 22.7086 21.5467 22.7946 21.604 22.9236Z" fill="black"/>
</svg>
