<svg width="143" height="23" viewBox="0 0 143 23" fill="none" xmlns="http://www.w3.org/2000/svg">
<path d="M44.032 22.852C44.032 17.2477 44.032 11.6433 44.032 6.05333C44.0176 6.05333 44.0033 6.03899 43.9746 6.03899C43.9316 6.12499 43.8886 6.21099 43.8456 6.28266C41.452 11.715 39.0583 17.1473 36.6646 22.5797C36.5643 22.7947 36.464 22.8807 36.2346 22.8663C35.8906 22.8377 35.5466 22.852 35.2026 22.8663C34.9733 22.8807 34.873 22.7947 34.787 22.594C33.6546 19.9853 32.508 17.3767 31.3613 14.768C30.1286 11.9587 28.896 9.14933 27.6633 6.32566C27.6203 6.23966 27.5773 6.15366 27.477 6.06766C27.477 6.16799 27.477 6.26832 27.477 6.35432C27.477 11.6863 27.477 17.0327 27.477 22.3647C27.477 22.4507 27.477 22.5223 27.477 22.6083C27.4913 22.7803 27.434 22.852 27.2476 22.852C26.703 22.8377 26.1726 22.8377 25.628 22.852C25.4703 22.852 25.413 22.7947 25.4273 22.6513C25.4273 22.594 25.4273 22.5223 25.4273 22.465C25.4273 15.1263 25.4273 7.77333 25.4273 0.434659C25.4273 0.319992 25.4273 0.205325 25.4273 0.0619914C25.542 0.0619914 25.628 0.0476583 25.714 0.0476583C26.8893 0.0476583 28.079 0.0476583 29.2543 0.0476583C29.455 0.0476583 29.5553 0.119325 29.627 0.305659C32.0206 5.70933 34.4 11.113 36.7936 16.5023C36.8366 16.5883 36.8796 16.6743 36.937 16.8177C36.9943 16.7173 37.0373 16.6457 37.066 16.5597C39.4453 11.1703 41.8246 5.76666 44.204 0.362992C44.3186 0.104992 44.4476 0.0333252 44.72 0.0333252C45.838 0.0476585 46.956 0.0476583 48.074 0.0476583C48.1743 0.0476583 48.289 0.0476583 48.418 0.0476583C48.4323 0.162325 48.4323 0.262658 48.4323 0.348658C48.4323 7.74466 48.4323 15.1407 48.4323 22.5367C48.4323 22.7803 48.3606 22.852 48.117 22.852C46.8413 22.8377 45.5656 22.852 44.2756 22.852C44.2326 22.8663 44.1466 22.852 44.032 22.852Z" fill="#BB9D61"/>
<path d="M128.111 22.852C126.621 22.852 125.173 22.852 123.711 22.852C123.711 15.2553 123.711 7.67296 123.711 0.0762939C125.173 0.0762939 126.621 0.0762939 128.111 0.0762939C128.111 3.32996 128.111 6.58363 128.111 9.85163C131.508 9.85163 134.877 9.85163 138.288 9.85163C138.288 6.59796 138.288 3.34429 138.288 0.0762939C139.764 0.0762939 141.226 0.0762939 142.688 0.0762939C142.688 7.67296 142.688 15.2553 142.688 22.8376C141.226 22.8376 139.764 22.8376 138.288 22.8376C138.288 19.197 138.288 15.5706 138.288 11.93C134.891 11.93 131.523 11.93 128.126 11.93C128.111 15.5706 128.111 19.197 128.111 22.852Z" fill="#BB9D61"/>
<path d="M92.6507 14.8969C92.6507 9.96627 92.6507 5.03561 92.6507 0.0762747C93.396 0.0762747 94.1126 0.0762747 94.858 0.0762747C94.858 7.65861 94.858 15.2409 94.858 22.8519C94.3563 22.8519 93.8547 22.8663 93.3673 22.8376C93.2957 22.8376 93.2096 22.7086 93.138 22.6226C90.343 18.9676 87.5623 15.2983 84.7673 11.6433C82.99 9.30694 81.1983 6.97061 79.421 4.61994C79.3636 4.54827 79.3063 4.49094 79.206 4.36194C79.206 10.3819 79.206 16.3303 79.206 22.2929C78.518 22.2929 77.8443 22.2929 77.1707 22.2929C77.1707 14.8826 77.1707 7.47227 77.1707 0.0476074C77.2853 0.0476074 77.3713 0.0476074 77.4717 0.0476074C78.69 0.0476074 79.9083 0.0476074 81.1123 0.0476074C81.3417 0.0476074 81.4706 0.119275 81.5996 0.291275C85.1973 5.09294 88.795 9.89461 92.3926 14.6819C92.45 14.7536 92.5073 14.8396 92.579 14.9113C92.6077 14.9113 92.6363 14.9113 92.6507 14.8969Z" fill="#BB9D61"/>
<path d="M61.4469 6.35427C61.1602 7.0566 60.8879 7.71593 60.6299 8.37527C60.1426 9.5936 59.6409 10.7976 59.1679 12.0159C57.8062 15.5419 56.4589 19.0679 55.1116 22.5939C55.0399 22.7946 54.9539 22.8663 54.7246 22.8663C54.0652 22.8519 53.4059 22.8663 52.7466 22.8663C52.6606 22.8663 52.5746 22.8519 52.4456 22.8519C52.6319 22.4076 52.7896 21.9919 52.9616 21.5906C55.8856 14.5099 58.8239 7.4436 61.7336 0.362935C61.8339 0.119269 61.9486 0.0332678 62.2066 0.0619344C62.4789 0.0762678 62.7656 0.0762678 63.0379 0.0619344C63.2672 0.0476011 63.3819 0.119268 63.4679 0.348601C64.7866 3.45893 66.1196 6.56927 67.4526 9.69393C69.2872 13.9796 71.1219 18.2796 72.9566 22.5653C72.9996 22.6513 73.0282 22.7516 73.0712 22.8519C72.9709 22.8519 72.8992 22.8663 72.8132 22.8663C71.3799 22.8663 69.9466 22.8663 68.5132 22.8663C68.3269 22.8663 68.2266 22.8089 68.1549 22.6226C67.2949 20.5013 66.4062 18.3943 65.5462 16.2729C65.0016 14.9543 64.4999 13.6213 63.9552 12.3026C63.1669 10.3819 62.3499 8.4756 61.5472 6.56927C61.5329 6.51193 61.5042 6.4546 61.4469 6.35427Z" fill="#BB9D61"/>
<path d="M119.511 22.8663C119.296 22.8663 119.11 22.8663 118.938 22.8663C117.605 22.8663 116.272 22.8663 114.939 22.8663C114.753 22.8663 114.667 22.809 114.609 22.637C113.735 20.5013 112.846 18.38 111.972 16.2443C111.442 14.94 110.94 13.607 110.395 12.3027C109.593 10.382 108.776 8.46133 107.973 6.54066C107.959 6.49766 107.93 6.44033 107.887 6.35433C107.83 6.48333 107.787 6.56933 107.758 6.66966C107.041 8.44699 106.296 10.2243 105.608 12.016C104.246 15.542 102.899 19.068 101.552 22.594C101.466 22.809 101.38 22.8807 101.15 22.8807C100.419 22.8663 99.674 22.8807 98.9143 22.8807C98.943 22.7947 98.9573 22.723 98.986 22.6657C102.068 15.2123 105.164 7.75899 108.245 0.291328C108.317 0.119328 108.403 0.0619942 108.589 0.0763276C108.905 0.0906609 109.22 0.0906609 109.535 0.0763276C109.779 0.0619942 109.879 0.162327 109.965 0.377327C111.671 4.37633 113.377 8.37533 115.082 12.36C116.544 15.7713 117.992 19.1827 119.454 22.594C119.44 22.6513 119.468 22.7373 119.511 22.8663Z" fill="#BB9D61"/>
<path d="M21.2706 22.9237C20.7546 22.9237 20.2816 22.9237 19.7943 22.9237C18.7623 22.9237 17.7446 22.9237 16.7126 22.9237C16.5263 22.9237 16.4259 22.8807 16.3543 22.6943C15.4799 20.573 14.6056 18.4517 13.7313 16.316C13.2009 15.0117 12.6849 13.6787 12.1546 12.3743C11.3519 10.4537 10.5349 8.53301 9.73228 6.61234C9.70362 6.55501 9.67495 6.49767 9.63195 6.41167C9.57461 6.54067 9.53161 6.62667 9.48861 6.72701C8.77195 8.50434 8.02662 10.2817 7.33861 12.0733C5.97695 15.5993 4.62962 19.1253 3.28228 22.6513C3.19628 22.8663 3.09595 22.938 2.88095 22.9237C2.14995 22.9093 1.40462 22.9237 0.630615 22.9237C0.687949 22.7803 0.716615 22.68 0.759615 22.5797C3.81262 15.1693 6.87995 7.77334 9.93295 0.377341C10.0189 0.191008 10.1049 0.0906737 10.3199 0.11934C10.6353 0.148007 10.9506 0.133674 11.2659 0.11934C11.4666 0.105007 11.5669 0.176674 11.6386 0.363008C12.7136 2.90001 13.8029 5.43701 14.8779 7.97401C16.9706 12.8617 19.0489 17.7493 21.1416 22.637C21.1846 22.7087 21.2133 22.7947 21.2706 22.9237Z" fill="#BB9D61"/>
</svg>
