<svg width="9" height="10" viewBox="0 0 9 10" fill="none" xmlns="http://www.w3.org/2000/svg">
<path d="M7.00226 4.79243L6.89405 4.86355L7.01246 4.91596C7.94521 5.32878 8.56529 6.22197 8.56529 7.26547C8.56529 8.70041 7.39653 9.87011 5.88383 9.87011H0.732208V0.12918H5.29782C6.93133 0.12918 8.1944 1.32916 8.1944 2.88205C8.1944 3.57154 7.7083 4.32836 7.00226 4.79243ZM2.887 1.75267H2.81641V1.82325V3.94085V4.01143H2.887H5.11237C5.7637 4.01143 6.29564 3.51016 6.29564 2.88205C6.29564 2.25394 5.7637 1.75267 5.11237 1.75267H2.887ZM2.81641 8.17603V8.24662H2.887H5.48326C6.13459 8.24662 6.66654 7.74535 6.66654 7.11724C6.66654 6.48912 6.13459 5.98785 5.48326 5.98785H2.887H2.81641V6.05844V8.17603Z" fill="#7E7E7E" stroke="#141414" stroke-width="0.141173"/>
</svg>
