<svg width="22" height="22" viewBox="0 0 22 22" fill="none" xmlns="http://www.w3.org/2000/svg">
<path d="M8 7.37988V6.62988C7.58579 6.62988 7.25 6.96567 7.25 7.37988H8ZM8 11.1419H7.25C7.25 11.5561 7.58579 11.8919 8 11.8919V11.1419ZM8 11.13V10.38C7.58579 10.38 7.25 10.7158 7.25 11.13H8ZM8 14.892H7.25C7.25 15.3062 7.58579 15.642 8 15.642V14.892ZM12.027 14.88C12.027 14.4658 11.6912 14.13 11.277 14.13C10.8628 14.13 10.527 14.4658 10.527 14.88H12.027ZM10.527 16.762C10.527 17.1762 10.8628 17.512 11.277 17.512C11.6912 17.512 12.027 17.1762 12.027 16.762H10.527ZM9.685 14.88C9.685 14.4658 9.34921 14.13 8.935 14.13C8.52079 14.13 8.185 14.4658 8.185 14.88H9.685ZM8.185 16.762C8.185 17.1762 8.52079 17.512 8.935 17.512C9.34921 17.512 9.685 17.1762 9.685 16.762H8.185ZM12.027 5.5C12.027 5.08579 11.6912 4.75 11.277 4.75C10.8628 4.75 10.527 5.08579 10.527 5.5H12.027ZM10.527 7.38C10.527 7.79421 10.8628 8.13 11.277 8.13C11.6912 8.13 12.027 7.79421 12.027 7.38H10.527ZM9.685 5.5C9.685 5.08579 9.34921 4.75 8.935 4.75C8.52079 4.75 8.185 5.08579 8.185 5.5H9.685ZM8.185 7.38C8.185 7.79421 8.52079 8.13 8.935 8.13C9.34921 8.13 9.685 7.79421 9.685 7.38H8.185ZM9.777 8.13C10.1912 8.13 10.527 7.79421 10.527 7.38C10.527 6.96579 10.1912 6.63 9.777 6.63V8.13ZM6.5 6.63C6.08579 6.63 5.75 6.96579 5.75 7.38C5.75 7.79421 6.08579 8.13 6.5 8.13V6.63ZM9.777 15.63C10.1912 15.63 10.527 15.2942 10.527 14.88C10.527 14.4658 10.1912 14.13 9.777 14.13V15.63ZM6.5 14.13C6.08579 14.13 5.75 14.4658 5.75 14.88C5.75 15.2942 6.08579 15.63 6.5 15.63V14.13ZM8 8.12988H12.685V6.62988H8V8.12988ZM12.685 8.12988C13.2847 8.12988 13.815 8.70464 13.815 9.26188H15.315C15.315 7.92513 14.1613 6.62988 12.685 6.62988V8.12988ZM13.815 9.26188C13.815 9.88567 13.3088 10.3919 12.685 10.3919V11.8919C14.1372 11.8919 15.315 10.7141 15.315 9.26188H13.815ZM12.685 10.3919H8V11.8919H12.685V10.3919ZM8.75 11.1419V7.37988H7.25V11.1419H8.75ZM8 11.88H13.354V10.38H8V11.88ZM13.354 11.88C14.2225 11.88 14.75 12.476 14.75 13.012H16.25C16.25 11.47 14.8615 10.38 13.354 10.38V11.88ZM14.75 13.012C14.75 13.5463 14.2233 14.142 13.354 14.142V15.642C14.8607 15.642 16.25 14.5537 16.25 13.012H14.75ZM13.354 14.142H8V15.642H13.354V14.142ZM8.75 14.892V11.13H7.25V14.892H8.75ZM10.527 14.88V16.762H12.027V14.88H10.527ZM8.185 14.88V16.762H9.685V14.88H8.185ZM10.527 5.5V7.38H12.027V5.5H10.527ZM8.185 5.5V7.38H9.685V5.5H8.185ZM9.777 6.63H6.5V8.13H9.777V6.63ZM9.777 14.13H6.5V15.63H9.777V14.13ZM11 21.75C16.9372 21.75 21.75 16.9372 21.75 11H20.25C20.25 16.1088 16.1088 20.25 11 20.25V21.75ZM21.75 11C21.75 5.06279 16.9372 0.25 11 0.25V1.75C16.1088 1.75 20.25 5.89121 20.25 11H21.75ZM11 0.25C5.06279 0.25 0.25 5.06279 0.25 11H1.75C1.75 5.89121 5.89121 1.75 11 1.75V0.25ZM0.25 11C0.25 16.9372 5.06279 21.75 11 21.75V20.25C5.89121 20.25 1.75 16.1088 1.75 11H0.25Z" fill="#5E718D"/>
</svg>
