<svg width="19" height="19" viewBox="0 0 19 19" fill="none" xmlns="http://www.w3.org/2000/svg">
<path d="M17.5577 18.454H0.942308C0.563846 18.454 0.25 18.1401 0.25 17.7617C0.25 17.3832 0.563846 17.0694 0.942308 17.0694H17.5577C17.9362 17.0694 18.25 17.3832 18.25 17.7617C18.25 18.1401 17.9362 18.454 17.5577 18.454ZM15.73 1.36044C13.9392 -0.43033 12.1854 -0.476483 10.3485 1.36044L9.23154 2.47736C9.13923 2.56967 9.10231 2.71736 9.13923 2.84659C9.49227 4.05802 10.1451 5.16086 11.0373 6.0531C11.9296 6.94534 13.0324 7.59817 14.2438 7.95121C14.3093 7.97263 14.3794 7.97534 14.4462 7.95903C14.5131 7.94272 14.5741 7.90804 14.6223 7.8589L15.73 6.74198C16.6438 5.83736 17.0869 4.96044 17.0869 4.07429C17.0962 3.16044 16.6531 2.27429 15.73 1.36044ZM12.5823 8.78936C12.3146 8.66013 12.0562 8.5309 11.8069 8.38321C11.6045 8.26261 11.4074 8.13326 11.2162 7.99552C11.0592 7.89398 10.8746 7.74629 10.6992 7.59859C10.6427 7.55741 10.5902 7.51106 10.5423 7.46013C10.2377 7.20167 9.89615 6.86936 9.59154 6.50013C9.56385 6.48167 9.51769 6.41705 9.45308 6.33398C9.36077 6.22321 9.20385 6.03859 9.06538 5.82628C8.9338 5.65267 8.81355 5.47076 8.70538 5.28167C8.55769 5.03244 8.42846 4.78321 8.29923 4.52475C8.28001 4.48341 8.26124 4.44187 8.24292 4.40013C8.10631 4.09275 7.70477 4.00321 7.46754 4.24044L2.17923 9.52875C2.05923 9.64875 1.94846 9.87952 1.92077 10.0364L1.42231 13.5718C1.33 14.1995 1.50538 14.7903 1.89308 15.1872C2.22538 15.5103 2.68692 15.6857 3.18538 15.6857C3.29615 15.6857 3.40692 15.6764 3.51769 15.658L7.06231 15.1595C7.22846 15.1318 7.45923 15.0211 7.57 14.9011L12.8518 9.62013C13.0918 9.38013 13.0005 8.96936 12.6894 8.83552C12.6537 8.82022 12.618 8.80483 12.5823 8.78936Z" fill="#7E7E7E"/>
</svg>
