<svg width="16" height="18" viewBox="0 0 16 18" fill="none" xmlns="http://www.w3.org/2000/svg">
<path d="M8.97948 2.11929L2.59392 8.87818C2.35281 9.13484 2.11948 9.6404 2.07281 9.9904L1.78503 12.5104C1.68392 13.4204 2.33726 14.0426 3.23948 13.8871L5.74392 13.4593C6.09392 13.3971 6.58392 13.1404 6.82503 12.876L13.2106 6.11707C14.315 4.9504 14.8128 3.6204 13.0939 1.99484C11.3828 0.384843 10.0839 0.952621 8.97948 2.11929V2.11929Z" stroke="#5E718D" stroke-width="1.36111" stroke-miterlimit="10" stroke-linecap="round" stroke-linejoin="round"/>
<path d="M7.91444 3.25098C8.0775 4.29386 8.58225 5.25308 9.34946 5.97806C10.1167 6.70303 11.1029 7.15272 12.1533 7.25653M1 16.4343H15" stroke="#5E718D" stroke-width="1.36111" stroke-miterlimit="10" stroke-linecap="round" stroke-linejoin="round"/>
</svg>
