<svg width="22" height="23" viewBox="0 0 22 23" fill="none" xmlns="http://www.w3.org/2000/svg">
<path d="M21.16 5V7.42C21.16 9 20.16 10 18.58 10H15.16V3.01C15.16 1.9 16.07 1 17.18 1C18.27 1.01 19.27 1.45 19.99 2.17C20.71 2.9 21.16 3.9 21.16 5Z" stroke="#7E7E7E" stroke-width="1.5" stroke-miterlimit="10" stroke-linecap="round" stroke-linejoin="round"/>
<path d="M1.16003 6V20C1.16003 20.83 2.10003 21.3 2.76003 20.8L4.47003 19.52C4.87003 19.22 5.43003 19.26 5.79003 19.62L7.45003 21.29C7.84003 21.68 8.48003 21.68 8.87003 21.29L10.55 19.61C10.9 19.26 11.46 19.22 11.85 19.52L13.56 20.8C14.22 21.29 15.16 20.82 15.16 20V3C15.16 1.9 16.06 1 17.16 1H5.16003C2.16003 1 1.16003 2.79 1.16003 5V6Z" stroke="#7E7E7E" stroke-width="1.5" stroke-miterlimit="10" stroke-linecap="round" stroke-linejoin="round"/>
<path d="M5.16003 8H11.16M5.91003 12H10.41" stroke="#7E7E7E" stroke-width="1.5" stroke-linecap="round" stroke-linejoin="round"/>
</svg>
