<svg width="8" height="10" viewBox="0 0 8 10" fill="none" xmlns="http://www.w3.org/2000/svg">
<path d="M0.75738 9.62427L0.757276 9.62415C0.614533 9.45814 0.542266 9.25624 0.542266 9.01425C0.542266 8.77225 0.614533 8.57035 0.757276 8.40434L0.75738 8.40422C0.899478 8.2382 1.06801 8.15838 1.26646 8.15838H2.25993H2.31033L2.32669 8.11071L4.4461 1.9344L4.47818 1.8409H4.37933H3.38586C3.18741 1.8409 3.01888 1.76108 2.87678 1.59507L2.87668 1.59494C2.73394 1.42893 2.66167 1.22704 2.66167 0.98504C2.66167 0.743043 2.73394 0.541148 2.87668 0.375137L2.87678 0.375015C3.01888 0.208997 3.18741 0.12918 3.38586 0.12918H7.09482C7.29327 0.12918 7.46179 0.208997 7.60389 0.375016L7.604 0.375136C7.74674 0.541148 7.81901 0.743043 7.81901 0.98504C7.81901 1.22704 7.74674 1.42893 7.604 1.59494L7.60389 1.59507C7.46179 1.76108 7.29327 1.8409 7.09482 1.8409H6.10135H6.05094L6.03458 1.88858L3.91518 8.06489L3.88309 8.15838H3.98194H4.97541C5.17386 8.15838 5.34239 8.2382 5.48449 8.40422L5.48459 8.40434C5.62734 8.57035 5.6996 8.77225 5.6996 9.01425C5.6996 9.25624 5.62734 9.45814 5.48459 9.62415L5.48449 9.62427C5.34239 9.79029 5.17386 9.87011 4.97541 9.87011H1.26646C1.06801 9.87011 0.899478 9.79029 0.75738 9.62427ZM5.53811 8.35832C5.69283 8.53826 5.77019 8.7569 5.77019 9.01425C5.77019 9.27159 5.69283 9.49023 5.53811 9.67017V8.35832Z" fill="#5F75A9" stroke="#F5F8FB" stroke-width="0.141173"/>
</svg>
