<svg width="144" height="43" viewBox="0 0 144 43" fill="none" xmlns="http://www.w3.org/2000/svg">
<path d="M44.032 32.8519C44.032 27.2475 44.032 21.6432 44.032 16.0532C44.0176 16.0532 44.0033 16.0389 43.9746 16.0389C43.9316 16.1249 43.8886 16.2109 43.8456 16.2825C41.452 21.7149 39.0583 27.1472 36.6646 32.5795C36.5643 32.7945 36.464 32.8805 36.2346 32.8662C35.8906 32.8375 35.5466 32.8519 35.2026 32.8662C34.9733 32.8805 34.873 32.7945 34.787 32.5939C33.6546 29.9852 32.508 27.3765 31.3613 24.7679C30.1286 21.9585 28.896 19.1492 27.6633 16.3255C27.6203 16.2395 27.5773 16.1535 27.477 16.0675C27.477 16.1679 27.477 16.2682 27.477 16.3542C27.477 21.6862 27.477 27.0325 27.477 32.3645C27.477 32.4505 27.477 32.5222 27.477 32.6082C27.4913 32.7802 27.434 32.8519 27.2476 32.8519C26.703 32.8375 26.1726 32.8375 25.628 32.8519C25.4703 32.8519 25.413 32.7945 25.4273 32.6512C25.4273 32.5939 25.4273 32.5222 25.4273 32.4649C25.4273 25.1262 25.4273 17.7732 25.4273 10.4345C25.4273 10.3199 25.4273 10.2052 25.4273 10.0619C25.542 10.0619 25.628 10.0475 25.714 10.0475C26.8893 10.0475 28.079 10.0475 29.2543 10.0475C29.455 10.0475 29.5553 10.1192 29.627 10.3055C32.0206 15.7092 34.4 21.1129 36.7936 26.5022C36.8366 26.5882 36.8796 26.6742 36.937 26.8175C36.9943 26.7172 37.0373 26.6455 37.066 26.5595C39.4453 21.1702 41.8246 15.7665 44.204 10.3629C44.3186 10.1049 44.4476 10.0332 44.72 10.0332C45.838 10.0475 46.956 10.0475 48.074 10.0475C48.1743 10.0475 48.289 10.0475 48.418 10.0475C48.4323 10.1622 48.4323 10.2625 48.4323 10.3485C48.4323 17.7445 48.4323 25.1405 48.4323 32.5365C48.4323 32.7802 48.3606 32.8519 48.117 32.8519C46.8413 32.8375 45.5656 32.8519 44.2756 32.8519C44.2326 32.8662 44.1466 32.8519 44.032 32.8519Z" fill="#BB9D61"/>
<path d="M128.111 32.8518C126.621 32.8518 125.173 32.8518 123.711 32.8518C123.711 25.2552 123.711 17.6728 123.711 10.0762C125.173 10.0762 126.621 10.0762 128.111 10.0762C128.111 13.3298 128.111 16.5835 128.111 19.8515C131.508 19.8515 134.877 19.8515 138.288 19.8515C138.288 16.5978 138.288 13.3442 138.288 10.0762C139.764 10.0762 141.226 10.0762 142.688 10.0762C142.688 17.6728 142.688 25.2552 142.688 32.8375C141.226 32.8375 139.764 32.8375 138.288 32.8375C138.288 29.1968 138.288 25.5705 138.288 21.9298C134.891 21.9298 131.523 21.9298 128.126 21.9298C128.111 25.5705 128.111 29.1968 128.111 32.8518Z" fill="#BB9D61"/>
<path d="M92.6507 24.8967C92.6507 19.966 92.6507 15.0354 92.6507 10.076C93.396 10.076 94.1126 10.076 94.858 10.076C94.858 17.6584 94.858 25.2407 94.858 32.8517C94.3563 32.8517 93.8547 32.866 93.3673 32.8374C93.2957 32.8374 93.2096 32.7084 93.138 32.6224C90.343 28.9674 87.5623 25.298 84.7673 21.643C82.99 19.3067 81.1983 16.9704 79.421 14.6197C79.3636 14.548 79.3063 14.4907 79.206 14.3617C79.206 20.3817 79.206 26.33 79.206 32.2927C78.518 32.2927 77.8443 32.2927 77.1707 32.2927C77.1707 24.8824 77.1707 17.472 77.1707 10.0474C77.2853 10.0474 77.3713 10.0474 77.4717 10.0474C78.69 10.0474 79.9083 10.0474 81.1123 10.0474C81.3417 10.0474 81.4706 10.119 81.5996 10.291C85.1973 15.0927 88.795 19.8944 92.3926 24.6817C92.45 24.7534 92.5073 24.8394 92.579 24.911C92.6077 24.911 92.6363 24.911 92.6507 24.8967Z" fill="#BB9D61"/>
<path d="M61.4469 16.3543C61.1602 17.0566 60.8879 17.7159 60.6299 18.3753C60.1426 19.5936 59.6409 20.7976 59.1679 22.0159C57.8062 25.5419 56.4589 29.0679 55.1116 32.5939C55.0399 32.7946 54.9539 32.8663 54.7246 32.8663C54.0652 32.8519 53.4059 32.8663 52.7466 32.8663C52.6606 32.8663 52.5746 32.8519 52.4456 32.8519C52.6319 32.4076 52.7896 31.9919 52.9616 31.5906C55.8856 24.5099 58.8239 17.4436 61.7336 10.3629C61.8339 10.1193 61.9486 10.0333 62.2066 10.0619C62.4789 10.0763 62.7656 10.0763 63.0379 10.0619C63.2672 10.0476 63.3819 10.1193 63.4679 10.3486C64.7866 13.4589 66.1196 16.5693 67.4526 19.6939C69.2872 23.9796 71.1219 28.2796 72.9566 32.5653C72.9996 32.6513 73.0282 32.7516 73.0712 32.8519C72.9709 32.8519 72.8992 32.8663 72.8132 32.8663C71.3799 32.8663 69.9466 32.8663 68.5132 32.8663C68.3269 32.8663 68.2266 32.8089 68.1549 32.6226C67.2949 30.5013 66.4062 28.3943 65.5462 26.2729C65.0016 24.9543 64.4999 23.6213 63.9552 22.3026C63.1669 20.3819 62.3499 18.4756 61.5472 16.5693C61.5329 16.5119 61.5042 16.4546 61.4469 16.3543Z" fill="#BB9D61"/>
<path d="M119.511 32.8663C119.296 32.8663 119.11 32.8663 118.938 32.8663C117.605 32.8663 116.272 32.8663 114.939 32.8663C114.753 32.8663 114.667 32.809 114.609 32.637C113.735 30.5013 112.846 28.38 111.972 26.2443C111.442 24.94 110.94 23.607 110.395 22.3027C109.593 20.382 108.776 18.4613 107.973 16.5407C107.959 16.4977 107.93 16.4403 107.887 16.3543C107.83 16.4833 107.787 16.5693 107.758 16.6697C107.041 18.447 106.296 20.2243 105.608 22.016C104.246 25.542 102.899 29.068 101.552 32.594C101.466 32.809 101.38 32.8807 101.15 32.8807C100.419 32.8663 99.674 32.8807 98.9143 32.8807C98.943 32.7947 98.9573 32.723 98.986 32.6657C102.068 25.2123 105.164 17.759 108.245 10.2913C108.317 10.1193 108.403 10.062 108.589 10.0763C108.905 10.0907 109.22 10.0907 109.535 10.0763C109.779 10.062 109.879 10.1623 109.965 10.3773C111.671 14.3763 113.377 18.3753 115.082 22.36C116.544 25.7713 117.992 29.1827 119.454 32.594C119.44 32.6513 119.468 32.7373 119.511 32.8663Z" fill="#BB9D61"/>
<path d="M21.2706 32.9234C20.7546 32.9234 20.2816 32.9234 19.7943 32.9234C18.7623 32.9234 17.7446 32.9234 16.7126 32.9234C16.5263 32.9234 16.4259 32.8804 16.3543 32.6941C15.4799 30.5728 14.6056 28.4514 13.7313 26.3158C13.2009 25.0114 12.6849 23.6784 12.1546 22.3741C11.3519 20.4534 10.5349 18.5328 9.73228 16.6121C9.70362 16.5548 9.67495 16.4974 9.63195 16.4114C9.57461 16.5404 9.53161 16.6264 9.48861 16.7268C8.77195 18.5041 8.02662 20.2814 7.33861 22.0731C5.97695 25.5991 4.62962 29.1251 3.28228 32.6511C3.19628 32.8661 3.09595 32.9378 2.88095 32.9234C2.14995 32.9091 1.40462 32.9234 0.630615 32.9234C0.687949 32.7801 0.716615 32.6798 0.759615 32.5794C3.81262 25.1691 6.87995 17.7731 9.93295 10.3771C10.0189 10.1908 10.1049 10.0904 10.3199 10.1191C10.6353 10.1478 10.9506 10.1334 11.2659 10.1191C11.4666 10.1048 11.5669 10.1764 11.6386 10.3628C12.7136 12.8998 13.8029 15.4368 14.8779 17.9738C16.9706 22.8614 19.0489 27.7491 21.1416 32.6368C21.1846 32.7084 21.2133 32.7944 21.2706 32.9234Z" fill="#BB9D61"/>
</svg>
