<svg width="144" height="23" viewBox="0 0 144 23" fill="none" xmlns="http://www.w3.org/2000/svg">
<path d="M44.3653 22.852C44.3653 17.2477 44.3653 11.6433 44.3653 6.05333C44.351 6.05333 44.3367 6.03899 44.308 6.03899C44.265 6.12499 44.222 6.21099 44.179 6.28266C41.7853 11.715 39.3917 17.1473 36.998 22.5797C36.8977 22.7947 36.7973 22.8807 36.568 22.8663C36.224 22.8377 35.88 22.852 35.536 22.8663C35.3067 22.8807 35.2063 22.7947 35.1203 22.594C33.988 19.9853 32.8413 17.3767 31.6947 14.768C30.462 11.9587 29.2293 9.14933 27.9967 6.32566C27.9537 6.23966 27.9107 6.15366 27.8103 6.06766C27.8103 6.16799 27.8103 6.26832 27.8103 6.35432C27.8103 11.6863 27.8103 17.0327 27.8103 22.3647C27.8103 22.4507 27.8103 22.5223 27.8103 22.6083C27.8247 22.7803 27.7673 22.852 27.581 22.852C27.0363 22.8377 26.506 22.8377 25.9613 22.852C25.8037 22.852 25.7463 22.7947 25.7607 22.6513C25.7607 22.594 25.7607 22.5223 25.7607 22.465C25.7607 15.1263 25.7607 7.77333 25.7607 0.434659C25.7607 0.319992 25.7607 0.205325 25.7607 0.0619914C25.8753 0.0619914 25.9613 0.0476583 26.0473 0.0476583C27.2227 0.0476583 28.4123 0.0476583 29.5877 0.0476583C29.7883 0.0476583 29.8887 0.119325 29.9603 0.305659C32.354 5.70933 34.7333 11.113 37.127 16.5023C37.17 16.5883 37.213 16.6743 37.2703 16.8177C37.3277 16.7173 37.3707 16.6457 37.3993 16.5597C39.7787 11.1703 42.158 5.76666 44.5373 0.362992C44.652 0.104992 44.781 0.0333252 45.0533 0.0333252C46.1713 0.0476585 47.2893 0.0476583 48.4073 0.0476583C48.5077 0.0476583 48.6223 0.0476583 48.7513 0.0476583C48.7657 0.162325 48.7657 0.262658 48.7657 0.348658C48.7657 7.74466 48.7657 15.1407 48.7657 22.5367C48.7657 22.7803 48.694 22.852 48.4503 22.852C47.1747 22.8377 45.899 22.852 44.609 22.852C44.566 22.8663 44.48 22.852 44.3653 22.852Z" fill="black"/>
<path d="M128.445 22.852C126.954 22.852 125.506 22.852 124.044 22.852C124.044 15.2553 124.044 7.67296 124.044 0.0762939C125.506 0.0762939 126.954 0.0762939 128.445 0.0762939C128.445 3.32996 128.445 6.58363 128.445 9.85163C131.842 9.85163 135.21 9.85163 138.621 9.85163C138.621 6.59796 138.621 3.34429 138.621 0.0762939C140.098 0.0762939 141.56 0.0762939 143.022 0.0762939C143.022 7.67296 143.022 15.2553 143.022 22.8376C141.56 22.8376 140.098 22.8376 138.621 22.8376C138.621 19.197 138.621 15.5706 138.621 11.93C135.224 11.93 131.856 11.93 128.459 11.93C128.445 15.5706 128.445 19.197 128.445 22.852Z" fill="black"/>
<path d="M92.984 14.8969C92.984 9.96627 92.984 5.03561 92.984 0.0762747C93.7293 0.0762747 94.446 0.0762747 95.1913 0.0762747C95.1913 7.65861 95.1913 15.2409 95.1913 22.8519C94.6896 22.8519 94.188 22.8663 93.7006 22.8376C93.629 22.8376 93.543 22.7086 93.4713 22.6226C90.6763 18.9676 87.8956 15.2983 85.1006 11.6433C83.3233 9.30694 81.5316 6.97061 79.7543 4.61994C79.697 4.54827 79.6396 4.49094 79.5393 4.36194C79.5393 10.3819 79.5393 16.3303 79.5393 22.2929C78.8513 22.2929 78.1776 22.2929 77.504 22.2929C77.504 14.8826 77.504 7.47227 77.504 0.0476074C77.6186 0.0476074 77.7046 0.0476074 77.805 0.0476074C79.0233 0.0476074 80.2416 0.0476074 81.4456 0.0476074C81.675 0.0476074 81.804 0.119275 81.933 0.291275C85.5306 5.09294 89.1283 9.89461 92.726 14.6819C92.7833 14.7536 92.8406 14.8396 92.9123 14.9113C92.941 14.9113 92.9696 14.9113 92.984 14.8969Z" fill="black"/>
<path d="M61.7803 6.35427C61.4937 7.0566 61.2213 7.71593 60.9633 8.37527C60.476 9.5936 59.9743 10.7976 59.5013 12.0159C58.1397 15.5419 56.7923 19.0679 55.445 22.5939C55.3733 22.7946 55.2873 22.8663 55.058 22.8663C54.3987 22.8519 53.7393 22.8663 53.08 22.8663C52.994 22.8663 52.908 22.8519 52.779 22.8519C52.9653 22.4076 53.123 21.9919 53.295 21.5906C56.219 14.5099 59.1573 7.4436 62.067 0.362935C62.1673 0.119269 62.282 0.0332678 62.54 0.0619344C62.8123 0.0762678 63.099 0.0762678 63.3713 0.0619344C63.6007 0.0476011 63.7153 0.119268 63.8013 0.348601C65.12 3.45893 66.453 6.56927 67.786 9.69393C69.6207 13.9796 71.4553 18.2796 73.29 22.5653C73.333 22.6513 73.3617 22.7516 73.4047 22.8519C73.3043 22.8519 73.2327 22.8663 73.1467 22.8663C71.7133 22.8663 70.28 22.8663 68.8467 22.8663C68.6603 22.8663 68.56 22.8089 68.4883 22.6226C67.6283 20.5013 66.7397 18.3943 65.8797 16.2729C65.335 14.9543 64.8333 13.6213 64.2887 12.3026C63.5003 10.3819 62.6833 8.4756 61.8807 6.56927C61.8663 6.51193 61.8377 6.4546 61.7803 6.35427Z" fill="black"/>
<path d="M119.845 22.8663C119.63 22.8663 119.443 22.8663 119.271 22.8663C117.938 22.8663 116.605 22.8663 115.272 22.8663C115.086 22.8663 115 22.809 114.943 22.637C114.068 20.5013 113.18 18.38 112.305 16.2443C111.775 14.94 111.273 13.607 110.729 12.3027C109.926 10.382 109.109 8.46133 108.306 6.54066C108.292 6.49766 108.263 6.44033 108.22 6.35433C108.163 6.48333 108.12 6.56933 108.091 6.66966C107.375 8.44699 106.629 10.2243 105.941 12.016C104.58 15.542 103.232 19.068 101.885 22.594C101.799 22.809 101.713 22.8807 101.484 22.8807C100.753 22.8663 100.007 22.8807 99.2477 22.8807C99.2763 22.7947 99.2907 22.723 99.3193 22.6657C102.401 15.2123 105.497 7.75899 108.579 0.291328C108.65 0.119328 108.736 0.0619942 108.923 0.0763276C109.238 0.0906609 109.553 0.0906609 109.869 0.0763276C110.112 0.0619942 110.213 0.162327 110.299 0.377327C112.004 4.37633 113.71 8.37533 115.416 12.36C116.878 15.7713 118.325 19.1827 119.787 22.594C119.773 22.6513 119.802 22.7373 119.845 22.8663Z" fill="black"/>
<path d="M21.604 22.9237C21.088 22.9237 20.615 22.9237 20.1277 22.9237C19.0957 22.9237 18.078 22.9237 17.046 22.9237C16.8597 22.9237 16.7593 22.8807 16.6877 22.6943C15.8133 20.573 14.939 18.4517 14.0647 16.316C13.5343 15.0117 13.0183 13.6787 12.488 12.3743C11.6853 10.4537 10.8683 8.53301 10.0657 6.61234C10.037 6.55501 10.0083 6.49767 9.96532 6.41167C9.90799 6.54067 9.86499 6.62667 9.82199 6.72701C9.10532 8.50434 8.35999 10.2817 7.67199 12.0733C6.31032 15.5993 4.96299 19.1253 3.61566 22.6513C3.52966 22.8663 3.42932 22.938 3.21432 22.9237C2.48332 22.9093 1.73799 22.9237 0.963989 22.9237C1.02132 22.7803 1.04999 22.68 1.09299 22.5797C4.14599 15.1693 7.21332 7.77334 10.2663 0.377341C10.3523 0.191008 10.4383 0.0906737 10.6533 0.11934C10.9687 0.148007 11.284 0.133674 11.5993 0.11934C11.8 0.105007 11.9003 0.176674 11.972 0.363008C13.047 2.90001 14.1363 5.43701 15.2113 7.97401C17.304 12.8617 19.3823 17.7493 21.475 22.637C21.518 22.7087 21.5467 22.7947 21.604 22.9237Z" fill="black"/>
</svg>
