<svg width="15" height="19" viewBox="0 0 15 19" fill="none" xmlns="http://www.w3.org/2000/svg">
<path d="M14 10.0527V13.1976C14 15.8495 11.09 18 7.5 18C3.91 18 1 15.8495 1 13.1976V10.0527M14 10.0527C14 12.7046 11.09 14.6001 7.5 14.6001C3.91 14.6001 1 12.7046 1 10.0527M14 10.0527V5.80241M1 10.0527V5.80241M14 5.80241C14 6.57589 13.75 7.28988 13.31 7.90187C12.24 9.39784 10.04 10.3498 7.5 10.3498C4.96 10.3498 2.76 9.39784 1.69 7.90187C1.25 7.28988 1 6.57589 1 5.80241M14 5.80241C14 4.47643 13.27 3.27796 12.1 2.40247C10.92 1.53549 9.3 1 7.5 1M1 5.80241C1 4.47643 1.73 3.27796 2.9 2.41097C4.08 1.53549 5.7 1 7.5 1M1 5.80241C1 3.15046 3.91 1 7.5 1" stroke="#7E7E7E" stroke-width="1.5" stroke-linecap="round" stroke-linejoin="round"/>
</svg>
