<svg width="15" height="16" viewBox="0 0 15 16" fill="none" xmlns="http://www.w3.org/2000/svg">
<path d="M7.37721 9.0574C7.68024 9.0574 7.9803 8.99771 8.26026 8.88175C8.54022 8.76579 8.79459 8.59582 9.00887 8.38155C9.22314 8.16727 9.39311 7.9129 9.50907 7.63294C9.62503 7.35298 9.68472 7.05292 9.68472 6.74989C9.68472 6.44687 9.62503 6.14681 9.50907 5.86685C9.39311 5.58689 9.22314 5.33251 9.00887 5.11824C8.79459 4.90396 8.54022 4.73399 8.26026 4.61803C7.9803 4.50207 7.68024 4.44238 7.37721 4.44238C6.76522 4.44238 6.1783 4.68549 5.74556 5.11824C5.31281 5.55098 5.0697 6.1379 5.0697 6.74989C5.0697 7.36188 5.31281 7.9488 5.74556 8.38155C6.1783 8.81429 6.76522 9.0574 7.37721 9.0574Z" stroke="#7E7E7E" stroke-width="1.10938"/>
<path d="M1.17954 5.40343C2.63652 -1.00138 12.1254 -0.993989 13.575 5.41083C14.4255 9.16792 12.0884 12.3481 10.0398 14.3154C9.32392 15.0059 8.36813 15.3917 7.37357 15.3917C6.37901 15.3917 5.42323 15.0059 4.70736 14.3154C2.66611 12.3481 0.329015 9.16053 1.17954 5.40343Z" stroke="#7E7E7E" stroke-width="1.10938"/>
</svg>
