<svg width="30" height="30" viewBox="0 0 30 30" fill="none" xmlns="http://www.w3.org/2000/svg">
<path d="M5.5077 14.6875V4.5899C5.5077 4.34644 5.60442 4.11295 5.77657 3.9408C5.94872 3.76865 6.1822 3.67194 6.42566 3.67194H17.4412L23.8669 10.0977V14.6875" stroke="#343434" stroke-width="1.46874" stroke-linecap="round" stroke-linejoin="round"/>
<path d="M17.4412 3.67194V10.0977H23.8669" stroke="#343434" stroke-width="1.46874" stroke-linecap="round" stroke-linejoin="round"/>
<path d="M5.5077 22.9491H7.34362C7.83054 22.9491 8.29751 22.7556 8.64181 22.4113C8.98611 22.067 9.17954 21.6001 9.17954 21.1131C9.17954 20.6262 8.98611 20.1593 8.64181 19.815C8.29751 19.4706 7.83054 19.2772 7.34362 19.2772H5.5077V24.785" stroke="#343434" stroke-width="1.46874" stroke-linecap="round" stroke-linejoin="round"/>
<path d="M24.7849 19.2772H21.572V24.785" stroke="#343434" stroke-width="1.46874" stroke-linecap="round" stroke-linejoin="round"/>
<path d="M24.3259 22.4901H21.572" stroke="#343434" stroke-width="1.46874" stroke-linecap="round" stroke-linejoin="round"/>
<path d="M14.6873 24.785C15.4176 24.785 16.1181 24.4948 16.6346 23.9784C17.151 23.4619 17.4411 22.7615 17.4411 22.0311C17.4411 21.3007 17.151 20.6003 16.6346 20.0838C16.1181 19.5674 15.4176 19.2772 14.6873 19.2772H13.0808V24.785H14.6873Z" stroke="#343434" stroke-width="1.46874" stroke-linecap="round" stroke-linejoin="round"/>
</svg>
