<svg width="32" height="30" viewBox="0 0 32 30" fill="none" xmlns="http://www.w3.org/2000/svg">
<path d="M5.91064 15.0624V4.96483C5.91064 4.72138 6.01443 4.48789 6.19918 4.31574C6.38393 4.14359 6.6345 4.04687 6.89577 4.04688H18.7173L25.6132 10.4726V15.0624" stroke="#7E7E7E" stroke-width="1.46874" stroke-linecap="round" stroke-linejoin="round"/>
<path d="M18.7175 4.04688V10.4726H25.6134" stroke="#7E7E7E" stroke-width="1.46874" stroke-linecap="round" stroke-linejoin="round"/>
<path d="M5.91064 23.3242H7.8809C8.40344 23.3242 8.90458 23.1308 9.27408 22.7865C9.64357 22.4422 9.85115 21.9752 9.85115 21.4883C9.85115 21.0013 9.64357 20.5344 9.27408 20.1901C8.90458 19.8458 8.40344 19.6523 7.8809 19.6523H5.91064V25.1601" stroke="#7E7E7E" stroke-width="1.46874" stroke-linecap="round" stroke-linejoin="round"/>
<path d="M26.5983 19.6523H23.1504V25.1601" stroke="#7E7E7E" stroke-width="1.46874" stroke-linecap="round" stroke-linejoin="round"/>
<path d="M26.1058 22.8652H23.1504" stroke="#7E7E7E" stroke-width="1.46874" stroke-linecap="round" stroke-linejoin="round"/>
<path d="M15.7621 25.1601C16.5459 25.1601 17.2976 24.87 17.8518 24.3535C18.4061 23.8371 18.7174 23.1366 18.7174 22.4062C18.7174 21.6758 18.4061 20.9754 17.8518 20.4589C17.2976 19.9425 16.5459 19.6523 15.7621 19.6523H14.0381V25.1601H15.7621Z" stroke="#7E7E7E" stroke-width="1.46874" stroke-linecap="round" stroke-linejoin="round"/>
</svg>
