<svg width="30" height="31" viewBox="0 0 30 31" fill="none" xmlns="http://www.w3.org/2000/svg">
<path d="M5.5077 15.437V5.33941C5.5077 5.09595 5.60442 4.86246 5.77657 4.69031C5.94872 4.51816 6.1822 4.42145 6.42566 4.42145H17.4412L23.8669 10.8472V15.437" stroke="#E92215" stroke-width="1.46874" stroke-linecap="round" stroke-linejoin="round"/>
<path d="M17.4412 4.42145V10.8472H23.8669" stroke="#E92215" stroke-width="1.46874" stroke-linecap="round" stroke-linejoin="round"/>
<path d="M5.5077 23.6986H7.34362C7.83054 23.6986 8.29751 23.5051 8.64181 23.1608C8.98611 22.8165 9.17954 22.3496 9.17954 21.8627C9.17954 21.3757 8.98611 20.9088 8.64181 20.5645C8.29751 20.2202 7.83054 20.0267 7.34362 20.0267H5.5077V25.5345" stroke="#E92215" stroke-width="1.46874" stroke-linecap="round" stroke-linejoin="round"/>
<path d="M24.7849 20.0267H21.572V25.5345" stroke="#E92215" stroke-width="1.46874" stroke-linecap="round" stroke-linejoin="round"/>
<path d="M24.3259 23.2396H21.572" stroke="#E92215" stroke-width="1.46874" stroke-linecap="round" stroke-linejoin="round"/>
<path d="M14.6873 25.5345C15.4176 25.5345 16.1181 25.2444 16.6346 24.7279C17.151 24.2114 17.4411 23.511 17.4411 22.7806C17.4411 22.0502 17.151 21.3498 16.6346 20.8333C16.1181 20.3169 15.4176 20.0267 14.6873 20.0267H13.0808V25.5345H14.6873Z" stroke="#E92215" stroke-width="1.46874" stroke-linecap="round" stroke-linejoin="round"/>
</svg>
