<svg width="14" height="10" viewBox="0 0 14 10" fill="none" xmlns="http://www.w3.org/2000/svg">
<path d="M4.43658 3.04143L4.43463 2.97087C4.26386 2.97559 4.11917 2.92452 3.9966 2.81791L3.38247 2.24976L3.26395 2.14011V2.30157V7.69772V7.85918L3.38247 7.74953L3.99738 7.18066L3.99738 7.18066L3.9981 7.17998C4.10902 7.07443 4.24776 7.02064 4.4195 7.02064C4.58894 7.02064 4.7337 7.07862 4.8573 7.19623C4.96757 7.30116 5.02326 7.43391 5.02326 7.60019C5.02326 7.76648 4.96757 7.89923 4.8573 8.00416L3.08091 9.69452C2.95687 9.81254 2.81469 9.87011 2.65131 9.87011C2.48792 9.87011 2.34574 9.81254 2.2217 9.69452L0.445309 8.00416C0.334039 7.89828 0.276039 7.76701 0.271118 7.60584L0.271112 7.60566C0.265899 7.44845 0.322335 7.31325 0.445309 7.19623C0.556782 7.09016 0.696336 7.03361 0.868668 7.02842C1.03894 7.0237 1.1834 7.07474 1.30601 7.18138L1.92014 7.74953L2.03866 7.85918V7.69772V2.30157V2.14011L1.92014 2.24976L1.30524 2.81863L1.30523 2.81862L1.30451 2.81931C1.19355 2.92489 1.05503 2.97864 0.883793 2.97864C0.713847 2.97864 0.568872 2.92063 0.445309 2.80305C0.335043 2.69813 0.279349 2.56538 0.279349 2.39909C0.279349 2.2328 0.335043 2.10005 0.445309 1.99513L2.2217 0.30477C2.34574 0.186741 2.48792 0.12918 2.65131 0.12918C2.81469 0.12918 2.95687 0.186741 3.08091 0.30477L4.8573 1.99513C4.96866 2.10109 5.02685 2.23223 5.03218 2.39298L5.10273 2.39064M4.43658 3.04143L4.43446 2.97087C4.60637 2.96571 4.74576 2.90919 4.8573 2.80305C4.98028 2.68603 5.03699 2.55055 5.03218 2.39279L5.10273 2.39064M4.43658 3.04143C4.62424 3.03579 4.7807 2.97338 4.90596 2.85419C5.04261 2.72416 5.1082 2.56964 5.10273 2.39064M4.43658 3.04143C4.24847 3.04663 4.08609 2.98963 3.94944 2.87044L1.89749 2.36687M5.10273 2.39064C5.09681 2.21207 5.03122 2.06319 4.90596 1.94399L3.12957 0.253635C2.99292 0.123607 2.8335 0.0585938 2.65131 0.0585938C2.46911 0.0585938 2.30969 0.123607 2.17305 0.253635L0.396651 1.94399C0.271392 2.06319 0.208763 2.21488 0.208763 2.39909C0.208763 2.5833 0.271392 2.735 0.396651 2.85419C0.533297 2.98421 0.695677 3.04923 0.883793 3.04923C1.07145 3.04923 1.22791 2.98963 1.35317 2.87044L1.89749 2.36687M1.89749 2.36687V2.30157H1.96808L2.01601 2.35338L1.96808 2.39773V7.60155L2.01601 7.6459L1.96808 7.69772L1.89749 2.36687ZM6.9962 5.41149L6.99602 5.41132C6.87919 5.30054 6.82127 5.16489 6.82127 4.99964C6.82127 4.83439 6.8792 4.69847 6.99611 4.58723C7.1127 4.47629 7.25699 4.42009 7.43391 4.42009H12.8997C13.0767 4.42009 13.2209 4.47629 13.3375 4.58723C13.4544 4.69847 13.5124 4.83439 13.5124 4.99964C13.5124 5.16489 13.4545 5.30054 13.3376 5.41132L13.3375 5.41149C13.2208 5.52283 13.0766 5.57919 12.8997 5.57919H7.43391C7.25707 5.57919 7.1128 5.52283 6.9962 5.41149ZM13.3374 8.48862L13.3376 8.48879C13.4545 8.59957 13.5124 8.73522 13.5124 8.90047C13.5124 9.06572 13.4545 9.20137 13.3376 9.31215L13.3375 9.31232C13.2208 9.42366 13.0766 9.48002 12.8997 9.48002H7.43391C7.25707 9.48002 7.1128 9.42366 6.9962 9.31232L6.99602 9.31215C6.87919 9.20137 6.82127 9.06572 6.82127 8.90047C6.82127 8.73522 6.87919 8.59957 6.99602 8.48879L6.9962 8.48862C7.1128 8.37728 7.25707 8.32092 7.43391 8.32092H12.8997C13.0766 8.32092 13.2208 8.37728 13.3374 8.48862ZM7.43391 1.67837C7.25699 1.67837 7.1127 1.62217 6.99611 1.51123C6.8792 1.39998 6.82127 1.26407 6.82127 1.09881C6.82127 0.93356 6.8792 0.797646 6.99611 0.686401C7.1127 0.575459 7.25699 0.519263 7.43391 0.519263H12.8997C13.0767 0.519263 13.2209 0.575459 13.3375 0.686401C13.4544 0.797646 13.5124 0.93356 13.5124 1.09881C13.5124 1.26407 13.4544 1.39998 13.3375 1.51123C13.2209 1.62217 13.0767 1.67837 12.8997 1.67837H7.43391Z" fill="#5F75A9" stroke="#F5F8FB" stroke-width="0.141173"/>
</svg>
