<svg width="23" height="22" viewBox="0 0 23 22" fill="none" xmlns="http://www.w3.org/2000/svg">
<path d="M11.49 13.939C12.2856 13.939 13.0487 13.6229 13.6113 13.0603C14.1739 12.4977 14.49 11.7346 14.49 10.939C14.49 10.1433 14.1739 9.38025 13.6113 8.81764C13.0487 8.25503 12.2856 7.93896 11.49 7.93896C10.6943 7.93896 9.93128 8.25503 9.36867 8.81764C8.80606 9.38025 8.48999 10.1433 8.48999 10.939C8.48999 11.7346 8.80606 12.4977 9.36867 13.0603C9.93128 13.6229 10.6943 13.939 11.49 13.939Z" stroke="#5E718D" stroke-width="1.5" stroke-miterlimit="10" stroke-linecap="round" stroke-linejoin="round"/>
<path d="M1.48999 11.8189V10.0589C1.48999 9.0189 2.33999 8.1589 3.38999 8.1589C5.19999 8.1589 5.93999 6.8789 5.02999 5.3089C4.50999 4.4089 4.81999 3.2389 5.72999 2.7189L7.45999 1.7289C8.24999 1.2589 9.26999 1.5389 9.73999 2.3289L9.84999 2.5189C10.75 4.0889 12.23 4.0889 13.14 2.5189L13.25 2.3289C13.72 1.5389 14.74 1.2589 15.53 1.7289L17.26 2.7189C18.17 3.2389 18.48 4.4089 17.96 5.3089C17.05 6.8789 17.79 8.1589 19.6 8.1589C20.64 8.1589 21.5 9.0089 21.5 10.0589V11.8189C21.5 12.8589 20.65 13.7189 19.6 13.7189C17.79 13.7189 17.05 14.9989 17.96 16.5689C18.48 17.4789 18.17 18.6389 17.26 19.1589L15.53 20.1489C14.74 20.6189 13.72 20.3389 13.25 19.5489L13.14 19.3589C12.24 17.7889 10.76 17.7889 9.84999 19.3589L9.73999 19.5489C9.26999 20.3389 8.24999 20.6189 7.45999 20.1489L5.72999 19.1589C5.29409 18.9079 4.97557 18.4942 4.84434 18.0087C4.7131 17.5231 4.77987 17.0053 5.02999 16.5689C5.93999 14.9989 5.19999 13.7189 3.38999 13.7189C2.33999 13.7189 1.48999 12.8589 1.48999 11.8189Z" stroke="#5E718D" stroke-width="1.5" stroke-miterlimit="10" stroke-linecap="round" stroke-linejoin="round"/>
</svg>
