<svg width="250" height="41" viewBox="0 0 250 41" fill="none" xmlns="http://www.w3.org/2000/svg">
<path d="M76.4144 40.7583C76.4144 30.9051 76.4144 21.0519 76.4144 11.2239C76.3892 11.2239 76.364 11.1987 76.3136 11.1987C76.238 11.3499 76.1624 11.5011 76.0868 11.6271C71.8784 21.1779 67.67 30.7287 63.4616 40.2795C63.2852 40.6575 63.1088 40.8087 62.7056 40.7835C62.1008 40.7331 61.496 40.7583 60.8912 40.7835C60.488 40.8087 60.3116 40.6575 60.1604 40.3047C58.1696 35.7183 56.1536 31.1319 54.1376 26.5455C51.9704 21.6063 49.8032 16.6671 47.636 11.7027C47.5604 11.5515 47.4848 11.4003 47.3084 11.2491C47.3084 11.4255 47.3084 11.6019 47.3084 11.7531C47.3084 21.1275 47.3084 30.5271 47.3084 39.9015C47.3084 40.0527 47.3084 40.1787 47.3084 40.3299C47.3336 40.6323 47.2328 40.7583 46.9052 40.7583C45.9476 40.7331 45.0152 40.7331 44.0576 40.7583C43.7804 40.7583 43.6796 40.6575 43.7048 40.4055C43.7048 40.3047 43.7048 40.1787 43.7048 40.0779C43.7048 27.1755 43.7048 14.2479 43.7048 1.34549C43.7048 1.14389 43.7048 0.942292 43.7048 0.690292C43.9064 0.690292 44.0576 0.665092 44.2088 0.665092C46.2752 0.665092 48.3668 0.665092 50.4332 0.665092C50.786 0.665092 50.9624 0.791093 51.0884 1.11869C55.2968 10.6191 59.48 20.1195 63.6884 29.5947C63.764 29.7459 63.8396 29.8971 63.9404 30.1491C64.0412 29.9727 64.1168 29.8467 64.1672 29.6955C68.3504 20.2203 72.5336 10.7199 76.7168 1.21949C76.9184 0.765893 77.1452 0.639893 77.624 0.639893C79.5896 0.665093 81.5552 0.665092 83.5208 0.665092C83.6972 0.665092 83.8988 0.665092 84.1256 0.665092C84.1508 0.866692 84.1508 1.04309 84.1508 1.19429C84.1508 14.1975 84.1508 27.2007 84.1508 40.2039C84.1508 40.6323 84.0248 40.7583 83.5964 40.7583C81.3536 40.7331 79.1108 40.7583 76.8428 40.7583C76.7672 40.7835 76.616 40.7583 76.4144 40.7583Z" fill="black"/>
<path d="M224.238 40.7584C221.617 40.7584 219.072 40.7584 216.501 40.7584C216.501 27.4024 216.501 14.0716 216.501 0.715576C219.072 0.715576 221.617 0.715576 224.238 0.715576C224.238 6.43598 224.238 12.1564 224.238 17.902C230.21 17.902 236.132 17.902 242.13 17.902C242.13 12.1816 242.13 6.46118 242.13 0.715576C244.725 0.715576 247.296 0.715576 249.866 0.715576C249.866 14.0716 249.866 27.4024 249.866 40.7332C247.296 40.7332 244.725 40.7332 242.13 40.7332C242.13 34.3324 242.13 27.9568 242.13 21.556C236.157 21.556 230.235 21.556 224.263 21.556C224.238 27.9568 224.238 34.3324 224.238 40.7584Z" fill="black"/>
<path d="M161.893 26.7724C161.893 18.1036 161.893 9.43476 161.893 0.715562C163.203 0.715562 164.463 0.715562 165.774 0.715562C165.774 14.0464 165.774 27.3772 165.774 40.7584C164.892 40.7584 164.01 40.7836 163.153 40.7332C163.027 40.7332 162.876 40.5064 162.75 40.3552C157.836 33.9292 152.947 27.478 148.033 21.052C144.908 16.9444 141.758 12.8368 138.633 8.70396C138.532 8.57796 138.432 8.47716 138.255 8.25036C138.255 18.8344 138.255 29.2924 138.255 39.7756C137.046 39.7756 135.861 39.7756 134.677 39.7756C134.677 26.7472 134.677 13.7188 134.677 0.665161C134.878 0.665161 135.03 0.665161 135.206 0.665161C137.348 0.665161 139.49 0.665161 141.607 0.665161C142.01 0.665161 142.237 0.791162 142.464 1.09356C148.789 9.53556 155.114 17.9776 161.439 26.3944C161.54 26.5204 161.641 26.6716 161.767 26.7976C161.817 26.7976 161.868 26.7976 161.893 26.7724Z" fill="black"/>
<path d="M107.032 11.7531C106.528 12.9879 106.05 14.1471 105.596 15.3063C104.739 17.4483 103.857 19.5651 103.026 21.7071C100.632 27.9063 98.2628 34.1055 95.894 40.3047C95.768 40.6575 95.6168 40.7835 95.2136 40.7835C94.0544 40.7583 92.8952 40.7835 91.736 40.7835C91.5848 40.7835 91.4336 40.7583 91.2068 40.7583C91.5344 39.9771 91.8116 39.2463 92.114 38.5407C97.2548 26.0919 102.421 13.6683 107.536 1.21954C107.713 0.791139 107.914 0.639938 108.368 0.690338C108.847 0.715538 109.351 0.715538 109.83 0.690338C110.233 0.665138 110.434 0.791137 110.586 1.19434C112.904 6.66274 115.248 12.1311 117.591 17.6247C120.817 25.1595 124.042 32.7195 127.268 40.2543C127.344 40.4055 127.394 40.5819 127.47 40.7583C127.293 40.7583 127.167 40.7835 127.016 40.7835C124.496 40.7835 121.976 40.7835 119.456 40.7835C119.128 40.7835 118.952 40.6827 118.826 40.3551C117.314 36.6255 115.752 32.9211 114.24 29.1915C113.282 26.8731 112.4 24.5295 111.442 22.2111C110.056 18.8343 108.62 15.4827 107.209 12.1311C107.184 12.0303 107.133 11.9295 107.032 11.7531Z" fill="black"/>
<path d="M209.118 40.7835C208.74 40.7835 208.412 40.7835 208.11 40.7835C205.766 40.7835 203.422 40.7835 201.079 40.7835C200.751 40.7835 200.6 40.6827 200.499 40.3803C198.962 36.6255 197.4 32.8959 195.862 29.1411C194.93 26.8479 194.048 24.5043 193.09 22.2111C191.679 18.8343 190.243 15.4575 188.832 12.0807C188.806 12.0051 188.756 11.9043 188.68 11.7531C188.58 11.9799 188.504 12.1311 188.454 12.3075C187.194 15.4323 185.883 18.5571 184.674 21.7071C182.28 27.9063 179.911 34.1055 177.542 40.3047C177.391 40.6827 177.24 40.8087 176.836 40.8087C175.551 40.7835 174.241 40.8087 172.905 40.8087C172.956 40.6575 172.981 40.5315 173.031 40.4307C178.449 27.3267 183.892 14.2227 189.31 1.0935C189.436 0.7911 189.588 0.6903 189.915 0.7155C190.47 0.7407 191.024 0.7407 191.578 0.7155C192.007 0.6903 192.183 0.866699 192.334 1.2447C195.333 8.2755 198.332 15.3063 201.331 22.3119C203.901 28.3095 206.446 34.3071 209.017 40.3047C208.992 40.4055 209.042 40.5567 209.118 40.7835Z" fill="black"/>
<path d="M36.3968 40.8844C35.4896 40.8844 34.658 40.8844 33.8012 40.8844C31.9868 40.8844 30.1976 40.8844 28.3832 40.8844C28.0556 40.8844 27.8792 40.8088 27.7532 40.4812C26.216 36.7516 24.6788 33.022 23.1416 29.2672C22.2092 26.974 21.302 24.6304 20.3696 22.3372C18.9584 18.9604 17.522 15.5836 16.1108 12.2068C16.0604 12.106 16.01 12.0052 15.9344 11.854C15.8336 12.0808 15.758 12.232 15.6824 12.4084C14.4224 15.5332 13.112 18.658 11.9024 21.808C9.50836 28.0072 7.13956 34.2064 4.77076 40.4056C4.61956 40.7836 4.44316 40.9096 4.06516 40.8844C2.77996 40.8592 1.46956 40.8844 0.108765 40.8844C0.209565 40.6324 0.259965 40.456 0.335565 40.2796C5.70316 27.2512 11.096 14.248 16.4636 1.24482C16.6148 0.917222 16.766 0.740822 17.144 0.791222C17.6984 0.841622 18.2528 0.816422 18.8072 0.791222C19.16 0.766022 19.3364 0.892023 19.4624 1.21962C21.3524 5.68002 23.2676 10.1404 25.1576 14.6008C28.8368 23.194 32.4908 31.7872 36.17 40.3804C36.2456 40.5064 36.296 40.6576 36.3968 40.8844Z" fill="black"/>
</svg>
