<svg width="252" height="76" viewBox="0 0 252 76" fill="none" xmlns="http://www.w3.org/2000/svg">
<path d="M77.4144 57.7585C77.4144 47.9053 77.4144 38.0521 77.4144 28.2241C77.3892 28.2241 77.364 28.1989 77.3136 28.1989C77.238 28.3501 77.1624 28.5013 77.0868 28.6273C72.8784 38.1781 68.67 47.7289 64.4616 57.2797C64.2852 57.6577 64.1088 57.8089 63.7056 57.7837C63.1008 57.7333 62.496 57.7585 61.8912 57.7837C61.488 57.8089 61.3116 57.6577 61.1604 57.3049C59.1696 52.7185 57.1536 48.1321 55.1376 43.5457C52.9704 38.6065 50.8032 33.6673 48.636 28.7029C48.5604 28.5517 48.4848 28.4005 48.3084 28.2493C48.3084 28.4257 48.3084 28.6021 48.3084 28.7533C48.3084 38.1277 48.3084 47.5273 48.3084 56.9017C48.3084 57.0529 48.3084 57.1789 48.3084 57.3301C48.3336 57.6325 48.2328 57.7585 47.9052 57.7585C46.9476 57.7333 46.0152 57.7333 45.0576 57.7585C44.7804 57.7585 44.6796 57.6577 44.7048 57.4057C44.7048 57.3049 44.7048 57.1789 44.7048 57.0781C44.7048 44.1757 44.7048 31.2481 44.7048 18.3457C44.7048 18.1441 44.7048 17.9425 44.7048 17.6905C44.9064 17.6905 45.0576 17.6653 45.2088 17.6653C47.2752 17.6653 49.3668 17.6653 51.4332 17.6653C51.786 17.6653 51.9624 17.7913 52.0884 18.1189C56.2968 27.6193 60.48 37.1197 64.6884 46.5949C64.764 46.7461 64.8396 46.8973 64.9404 47.1493C65.0412 46.9729 65.1168 46.8469 65.1672 46.6957C69.3504 37.2205 73.5336 27.7201 77.7168 18.2197C77.9184 17.7661 78.1452 17.6401 78.624 17.6401C80.5896 17.6653 82.5552 17.6653 84.5208 17.6653C84.6972 17.6653 84.8988 17.6653 85.1256 17.6653C85.1508 17.8669 85.1508 18.0433 85.1508 18.1945C85.1508 31.1977 85.1508 44.2009 85.1508 57.2041C85.1508 57.6325 85.0248 57.7585 84.5964 57.7585C82.3536 57.7333 80.1108 57.7585 77.8428 57.7585C77.7672 57.7837 77.616 57.7585 77.4144 57.7585Z" fill="#BB9D61"/>
<path d="M225.238 57.7586C222.617 57.7586 220.072 57.7586 217.501 57.7586C217.501 44.4026 217.501 31.0718 217.501 17.7158C220.072 17.7158 222.617 17.7158 225.238 17.7158C225.238 23.4362 225.238 29.1566 225.238 34.9022C231.21 34.9022 237.132 34.9022 243.13 34.9022C243.13 29.1818 243.13 23.4614 243.13 17.7158C245.725 17.7158 248.296 17.7158 250.866 17.7158C250.866 31.0718 250.866 44.4026 250.866 57.7334C248.296 57.7334 245.725 57.7334 243.13 57.7334C243.13 51.3326 243.13 44.957 243.13 38.5562C237.157 38.5562 231.235 38.5562 225.263 38.5562C225.238 44.957 225.238 51.3326 225.238 57.7586Z" fill="#BB9D61"/>
<path d="M162.893 43.7727C162.893 35.1039 162.893 26.4351 162.893 17.7159C164.203 17.7159 165.463 17.7159 166.774 17.7159C166.774 31.0467 166.774 44.3775 166.774 57.7587C165.892 57.7587 165.01 57.7839 164.153 57.7335C164.027 57.7335 163.876 57.5067 163.75 57.3555C158.836 50.9295 153.947 44.4783 149.033 38.0523C145.908 33.9447 142.758 29.8371 139.633 25.7043C139.532 25.5783 139.432 25.4775 139.255 25.2507C139.255 35.8347 139.255 46.2927 139.255 56.7759C138.046 56.7759 136.861 56.7759 135.677 56.7759C135.677 43.7475 135.677 30.7191 135.677 17.6655C135.878 17.6655 136.03 17.6655 136.206 17.6655C138.348 17.6655 140.49 17.6655 142.607 17.6655C143.01 17.6655 143.237 17.7915 143.464 18.0939C149.789 26.5359 156.114 34.9779 162.439 43.3947C162.54 43.5207 162.641 43.6719 162.767 43.7979C162.817 43.7979 162.868 43.7979 162.893 43.7727Z" fill="#BB9D61"/>
<path d="M108.032 28.7533C107.528 29.9881 107.05 31.1473 106.596 32.3065C105.739 34.4485 104.857 36.5653 104.026 38.7073C101.632 44.9065 99.2628 51.1057 96.894 57.3049C96.768 57.6577 96.6168 57.7837 96.2136 57.7837C95.0544 57.7585 93.8952 57.7837 92.736 57.7837C92.5848 57.7837 92.4336 57.7585 92.2068 57.7585C92.5344 56.9773 92.8116 56.2465 93.114 55.5409C98.2548 43.0921 103.421 30.6685 108.536 18.2197C108.713 17.7913 108.914 17.6401 109.368 17.6905C109.847 17.7157 110.351 17.7157 110.83 17.6905C111.233 17.6653 111.434 17.7913 111.586 18.1945C113.904 23.6629 116.248 29.1313 118.591 34.6249C121.817 42.1597 125.042 49.7197 128.268 57.2545C128.344 57.4057 128.394 57.5821 128.47 57.7585C128.293 57.7585 128.167 57.7837 128.016 57.7837C125.496 57.7837 122.976 57.7837 120.456 57.7837C120.128 57.7837 119.952 57.6829 119.826 57.3553C118.314 53.6257 116.752 49.9213 115.24 46.1917C114.282 43.8733 113.4 41.5297 112.442 39.2113C111.056 35.8345 109.62 32.4829 108.209 29.1313C108.184 29.0305 108.133 28.9297 108.032 28.7533Z" fill="#BB9D61"/>
<path d="M210.118 57.7836C209.74 57.7836 209.412 57.7836 209.11 57.7836C206.766 57.7836 204.422 57.7836 202.079 57.7836C201.751 57.7836 201.6 57.6828 201.499 57.3804C199.962 53.6256 198.4 49.896 196.862 46.1412C195.93 43.848 195.048 41.5044 194.09 39.2112C192.679 35.8344 191.243 32.4576 189.832 29.0808C189.806 29.0052 189.756 28.9044 189.68 28.7532C189.58 28.98 189.504 29.1312 189.454 29.3076C188.194 32.4324 186.883 35.5572 185.674 38.7072C183.28 44.9064 180.911 51.1056 178.542 57.3048C178.391 57.6828 178.24 57.8088 177.836 57.8088C176.551 57.7836 175.241 57.8088 173.905 57.8088C173.956 57.6576 173.981 57.5316 174.031 57.4308C179.449 44.3268 184.892 31.2228 190.31 18.0936C190.436 17.7912 190.588 17.6904 190.915 17.7156C191.47 17.7408 192.024 17.7408 192.578 17.7156C193.007 17.6904 193.183 17.8668 193.334 18.2448C196.333 25.2756 199.332 32.3064 202.331 39.312C204.901 45.3096 207.446 51.3072 210.017 57.3048C209.992 57.4056 210.042 57.5568 210.118 57.7836Z" fill="#BB9D61"/>
<path d="M37.3968 57.8844C36.4896 57.8844 35.658 57.8844 34.8012 57.8844C32.9868 57.8844 31.1976 57.8844 29.3832 57.8844C29.0556 57.8844 28.8792 57.8088 28.7532 57.4812C27.216 53.7516 25.6788 50.022 24.1416 46.2672C23.2092 43.974 22.302 41.6304 21.3696 39.3372C19.9584 35.9604 18.522 32.5836 17.1108 29.2068C17.0604 29.106 17.01 29.0052 16.9344 28.854C16.8336 29.0808 16.758 29.232 16.6824 29.4084C15.4224 32.5332 14.112 35.658 12.9024 38.808C10.5084 45.0072 8.13963 51.2064 5.77083 57.4056C5.61963 57.7836 5.44323 57.9096 5.06523 57.8844C3.78003 57.8592 2.46963 57.8844 1.10883 57.8844C1.20963 57.6324 1.26003 57.456 1.33563 57.2796C6.70323 44.2512 12.096 31.248 17.4636 18.2448C17.6148 17.9172 17.766 17.7408 18.144 17.7912C18.6984 17.8416 19.2528 17.8164 19.8072 17.7912C20.16 17.766 20.3364 17.892 20.4624 18.2196C22.3524 22.68 24.2676 27.1404 26.1576 31.6008C29.8368 40.194 33.4908 48.7872 37.17 57.3804C37.2456 57.5064 37.296 57.6576 37.3968 57.8844Z" fill="#BB9D61"/>
</svg>
