<svg width="9" height="10" viewBox="0 0 9 10" fill="none" xmlns="http://www.w3.org/2000/svg">
<path d="M8.1435 9.94069V8.84268H0.725586V9.94069H8.1435ZM4.43454 7.74467C5.27769 7.74467 6.08631 7.39762 6.68251 6.77987C7.27871 6.16212 7.61365 5.32427 7.61365 4.45064V0.0585938H6.28902V4.45064C6.28902 4.96026 6.09364 5.449 5.74586 5.80936C5.39807 6.16971 4.92638 6.37216 4.43454 6.37216C3.9427 6.37216 3.47101 6.16971 3.12323 5.80936C2.77545 5.449 2.58006 4.96026 2.58006 4.45064V0.0585938H1.25544V4.45064C1.25544 5.32427 1.59038 6.16212 2.18658 6.77987C2.78277 7.39762 3.59139 7.74467 4.43454 7.74467Z" fill="#7E7E7E"/>
<path d="M8.1435 9.94069V8.84268H0.725586V9.94069H8.1435ZM4.43454 7.74467C5.27769 7.74467 6.08631 7.39762 6.68251 6.77987C7.27871 6.16212 7.61365 5.32427 7.61365 4.45064V0.0585938H6.28902V4.45064C6.28902 4.96026 6.09364 5.449 5.74586 5.80936C5.39807 6.16971 4.92638 6.37216 4.43454 6.37216C3.9427 6.37216 3.47101 6.16971 3.12323 5.80936C2.77545 5.449 2.58006 4.96026 2.58006 4.45064V0.0585938H1.25544V4.45064C1.25544 5.32427 1.59038 6.16212 2.18658 6.77987C2.78277 7.39762 3.59139 7.74467 4.43454 7.74467Z" stroke="#141414"/>
</svg>
