<svg width="25" height="24" viewBox="0 0 25 24" fill="none" xmlns="http://www.w3.org/2000/svg">
<path d="M22.83 12V17C22.83 20 20.83 22 17.83 22H7.82996C4.82996 22 2.82996 20 2.82996 17V12C2.82996 9.28 4.46996 7.38 7.01996 7.06C7.27996 7.02 7.54996 7 7.82996 7H17.83C18.09 7 18.34 7.00999 18.58 7.04999C21.16 7.34999 22.83 9.26 22.83 12Z" stroke="#5E718D" stroke-width="1.5" stroke-linecap="round" stroke-linejoin="round"/>
<path d="M18.5814 7.05C18.3414 7.01 18.0914 7.00001 17.8314 7.00001H7.83136C7.55136 7.00001 7.28136 7.02001 7.02136 7.06001C7.16136 6.78001 7.36136 6.52001 7.60136 6.28001L10.8514 3.02C12.2214 1.66 14.4414 1.66 15.8114 3.02L17.5614 4.79002C18.2014 5.42002 18.5414 6.22 18.5814 7.05Z" stroke="#5E718D" stroke-width="1.5" stroke-linecap="round" stroke-linejoin="round"/>
<path d="M22.83 12.5H19.83C18.73 12.5 17.83 13.4 17.83 14.5C17.83 15.6 18.73 16.5 19.83 16.5H22.83" stroke="#5E718D" stroke-width="1.5" stroke-linecap="round" stroke-linejoin="round"/>
</svg>
