<svg width="25" height="24" viewBox="0 0 25 24" fill="none" xmlns="http://www.w3.org/2000/svg">
<path d="M22.83 12V17C22.83 20 20.83 22 17.83 22H7.83002C4.83002 22 2.83002 20 2.83002 17V12C2.83002 9.28 4.47002 7.38 7.02002 7.06C7.28002 7.02 7.55002 7 7.83002 7H17.83C18.09 7 18.34 7.00999 18.58 7.04999C21.16 7.34999 22.83 9.26 22.83 12Z" stroke="#7E7E7E" stroke-width="1.5" stroke-linecap="round" stroke-linejoin="round"/>
<path d="M18.5814 7.05C18.3414 7.01 18.0914 7.00001 17.8314 7.00001H7.83142C7.55142 7.00001 7.28142 7.02001 7.02142 7.06001C7.16142 6.78001 7.36142 6.52001 7.60142 6.28001L10.8514 3.02C12.2214 1.66 14.4414 1.66 15.8114 3.02L17.5614 4.79002C18.2014 5.42002 18.5414 6.22 18.5814 7.05Z" stroke="#7E7E7E" stroke-width="1.5" stroke-linecap="round" stroke-linejoin="round"/>
<path d="M22.83 12.5H19.83C18.73 12.5 17.83 13.4 17.83 14.5C17.83 15.6 18.73 16.5 19.83 16.5H22.83" stroke="#7E7E7E" stroke-width="1.5" stroke-linecap="round" stroke-linejoin="round"/>
</svg>
